<svg width="24" height="24" viewBox="0 0 24 24" fill="none" xmlns="http://www.w3.org/2000/svg">
<path d="M15.526 16.6518C16.3028 16.3772 16.8594 15.6364 16.8594 14.7656C16.8594 13.8948 16.3028 13.1539 15.526 12.8794V5.43225H14.1927V12.8794C13.4159 13.1539 12.8594 13.8948 12.8594 14.7656C12.8594 15.6364 13.4159 16.3772 14.1927 16.6518V18.7656H15.526V16.6518Z" fill="#83A1C9"/>
<path d="M9.52604 11.3185C10.3028 11.0439 10.8594 10.3031 10.8594 9.43225C10.8594 8.56144 10.3028 7.82062 9.52604 7.54606V5.43225H8.19271V7.54606C7.41591 7.82062 6.85938 8.56144 6.85938 9.43225C6.85938 10.3031 7.41591 11.0439 8.19271 11.3185V18.7656H9.52604V11.3185Z" fill="#83A1C9"/>
</svg>
