<svg width="24" height="24" viewBox="0 0 24 24" fill="none" xmlns="http://www.w3.org/2000/svg">
<g clip-path="url(#clip0_2311_10759)">
<path d="M20.25 17.5V18.4167C20.25 19.425 19.425 20.25 18.4167 20.25H5.58333C4.56583 20.25 3.75 19.425 3.75 18.4167V5.58333C3.75 4.575 4.56583 3.75 5.58333 3.75H18.4167C19.425 3.75 20.25 4.575 20.25 5.58333V6.5H12C10.9825 6.5 10.1667 7.325 10.1667 8.33333V15.6667C10.1667 16.675 10.9825 17.5 12 17.5H20.25ZM12 15.6667H21.1667V8.33333H12V15.6667ZM15.6667 13.375C14.9058 13.375 14.2917 12.7608 14.2917 12C14.2917 11.2392 14.9058 10.625 15.6667 10.625C16.4275 10.625 17.0417 11.2392 17.0417 12C17.0417 12.7608 16.4275 13.375 15.6667 13.375Z" fill="#444444"/>
</g>
<defs>
<clipPath id="clip0_2311_10759">
<rect width="24" height="24" fill="white"/>
</clipPath>
</defs>
</svg>
