<svg width="24" height="24" viewBox="0 0 24 24" fill="none" xmlns="http://www.w3.org/2000/svg">
<path fill-rule="evenodd" clip-rule="evenodd" d="M12 22C17.5228 22 22 17.5228 22 12C22 6.47715 17.5228 2 12 2C6.47715 2 2 6.47715 2 12C2 17.5228 6.47715 22 12 22ZM11.3629 14.4435H13.1613C13.1667 14.0349 13.2231 13.672 13.3306 13.3548C13.4382 13.0323 13.6425 12.7339 13.9435 12.4597C14.293 12.1317 14.6183 11.8038 14.9194 11.4758C15.2204 11.1425 15.4651 10.7849 15.6532 10.4032C15.8414 10.0161 15.9355 9.58602 15.9355 9.1129C15.9355 8.45699 15.7984 7.89785 15.5242 7.43548C15.2554 6.96774 14.8656 6.6129 14.3548 6.37097C13.8441 6.12366 13.2285 6 12.5081 6C11.8575 6 11.2688 6.11559 10.7419 6.34677C10.2151 6.57796 9.7957 6.92473 9.48387 7.3871C9.17204 7.84946 9.01075 8.41935 9 9.09677H10.9435C10.9543 8.74194 11.0323 8.45699 11.1774 8.24194C11.3226 8.02151 11.5134 7.86022 11.75 7.75806C11.9866 7.65054 12.2392 7.59677 12.5081 7.59677C12.8306 7.59677 13.0995 7.6586 13.3145 7.78226C13.5349 7.90591 13.7016 8.08602 13.8145 8.32258C13.9274 8.55914 13.9839 8.84677 13.9839 9.18548C13.9839 9.49731 13.9247 9.77419 13.8065 10.0161C13.6882 10.2527 13.5296 10.4785 13.3306 10.6935C13.1317 10.9032 12.9086 11.1263 12.6613 11.3629C12.3441 11.6747 12.0887 11.9704 11.8952 12.25C11.707 12.5296 11.5726 12.8414 11.4919 13.1855C11.4113 13.5242 11.3683 13.9435 11.3629 14.4435ZM11.5 16.2258C11.3011 16.4247 11.2016 16.6694 11.2016 16.9597C11.2016 17.25 11.3011 17.4973 11.5 17.7016C11.6989 17.9005 11.9704 18 12.3145 18C12.6586 18 12.9301 17.9005 13.129 17.7016C13.328 17.4973 13.4274 17.25 13.4274 16.9597C13.4274 16.6694 13.328 16.4247 13.129 16.2258C12.9301 16.0215 12.6586 15.9194 12.3145 15.9194C11.9704 15.9194 11.6989 16.0215 11.5 16.2258Z" fill="#83A1C9"/>
</svg>
